<svg xmlns="http://www.w3.org/2000/svg" width="24" height="24" viewBox="0 0 24 24">
  <path fill="#fff" d="M12 15.5a3.5 3.5 0 1 1 0-7 3.5 3.5 0 0 1 0 7Zm8.94-3.5a7.94 7.94 0 0 0-.15-1.5l2.02-1.58a.5.5 0 0 0 .12-.64l-1.92-3.32a.5.5 0 0 0-.6-.22l-2.38.96a8 8 0 0 0-1.3-.75l-.36-2.53a.5.5 0 0 0-.5-.42h-3.84a.5.5 0 0 0-.5.42l-.36 2.53c-.47.2-.9.45-1.3.75l-2.38-.96a.5.5 0 0 0-.6.22L2.07 8.28a.5.5 0 0 0 .12.64l2.02 1.58a8.14 8.14 0 0 0 0 3l-2.02 1.58a.5.5 0 0 0-.12.64l1.92 3.32c.13.22.4.31.6.22l2.38-.96c.4.3.83.55 1.3.75l.36 2.53c.05.24.26.42.5.42h3.84c.24 0 .45-.18.5-.42l.36-2.53c.47-.2.9-.45 1.3-.75l2.38.96c.2.09.47 0 .6-.22l1.92-3.32a.5.5 0 0 0-.12-.64l-2.02-1.58c.1-.49.15-.99.15-1.5Z"/>
</svg>
